ace731a4fbc302e24498d6b64daa16e7 *tests/data/fate/iamf-stereo.iamf
14426 tests/data/fate/iamf-stereo.iamf
#extradata 0:       34, 0x40a802c6
#tb 0: 1/44100
#media_type 0: audio
#codec_id 0: flac
#sample_rate 0: 44100
#channel_layout_name 0: stereo
0,          0,          0,     4608,     1399, 0x6e89566e
0,       4608,       4608,     4608,     1442, 0x6c3c5b13
0,       9216,       9216,     4608,     1380, 0xc497571b
0,      13824,      13824,     4608,     1383, 0x48e9510f
0,      18432,      18432,     4608,     1572, 0x9a514719
0,      23040,      23040,     4608,     1391, 0x74ac5014
0,      27648,      27648,     4608,     1422, 0x2f9d47c5
0,      32256,      32256,     4608,     1768, 0x2a044b99
0,      36864,      36864,     4608,     1534, 0xb0b35a3f
0,      41472,      41472,     4608,      926, 0xc26a5eae
